<svg height="467pt" viewBox="-5 0 467 467.7" width="467pt" xmlns="http://www.w3.org/2000/svg"><g fill="#00acea"><path d="m427.113281 397.558594c8.484375 0 16.574219 3.59375 22.261719 9.886718 5.6875 6.292969 8.445312 14.703126 7.589844 23.144532v37.089844l-127.3125.019531v-37.109375c-.855469-8.441406 1.902344-16.851563 7.589844-23.144532 5.6875-6.292968 13.777343-9.886718 22.261718-9.886718h8.21875l25.589844 22.980468 26.511719-22.980468zm0 0"/><path d="m391.421875 307.699219h1.75c15.464844 0 28 12.535156 28 28v13.300781c0 15.464844-12.535156 28-28 28h-1.75c-15.460937 0-28-12.535156-28-28v-13.300781c0-15.464844 12.539063-28 28-28zm0 0"/><path d="m320.875 29.71875v125.761719l-92.140625 29.71875-1-.320313v-125.027344l.21875-.671874.78125.25zm0 0"/></g><path d="m320.875 29.71875-92.140625 29.710938-.78125-.25-91.359375-29.460938 92.140625-29.71875zm0 0" fill="#00efd1"/><path d="m264.351562 397.558594c8.484376 0 16.570313 3.59375 22.257813 9.886718 5.6875 6.296876 8.441406 14.703126 7.585937 23.144532v37.089844l-127.3125.019531v-37.109375c-.855468-8.441406 1.90625-16.851563 7.597657-23.144532 5.6875-6.296874 13.777343-9.886718 22.261719-9.886718h8.222656l25.578125 22.980468 26.519531-22.980468zm0 0" fill="#00efd1"/><path d="m228.652344 307.699219h1.75c15.464844 0 28 12.535156 28 28v13.300781c0 15.464844-12.535156 28-28 28h-1.75c-15.464844 0-28-12.535156-28-28v-13.300781c0-15.464844 12.535156-28 28-28zm0 0" fill="#00efd1"/><path d="m227.953125 59.179688-.21875.671874v125.027344l-91.140625-29.398437v-125.761719zm0 0" fill="#2ed3ff"/><path d="m97.972656 397.558594c8.484375.003906 16.570313 3.597656 22.253906 9.890625 5.6875 6.292969 8.445313 14.703125 7.585938 23.140625v37.089844l-127.308594.019531v-37.109375c-.855468-8.441406 1.898438-16.851563 7.589844-23.144532 5.6875-6.292968 13.773438-9.886718 22.257812-9.886718h8.222657l25.589843 22.980468 26.507813-22.980468zm0 0" fill="#00acea"/><path d="m62.273438 307.699219h1.75c15.464843 0 28 12.535156 28 28v13.300781c0 15.464844-12.535157 28-28 28h-1.75c-15.464844 0-28-12.535156-28-28v-13.300781c0-15.464844 12.535156-28 28-28zm0 0" fill="#00acea"/><path d="m382.734375 272.851562v15.097657c0 4.417969 3.582031 8 8 8s8-3.582031 8-8v-23.519531c0-4.417969-3.902344-7.578126-8.320313-7.578126h-153.679687v-33.9375l17.398437 17.394532c3.125 3.125 8.191407 3.125 11.320313.003906 3.125-3.125 3.125-8.191406.003906-11.320312l-30-30c-3.125-3.121094-8.191406-3.121094-11.316406 0l-30 30c-2.136719 1.996093-3.015625 4.996093-2.296875 7.828124.722656 2.835938 2.933594 5.046876 5.765625 5.773438s5.835937-.152344 7.832031-2.285156l15.292969-15.296875v31.839843h-153.652344c-4.417969 0-8.347656 3.160157-8.347656 7.578126v23.519531c0 4.417969 3.582031 8 8 8s8-3.582031 8-8v-15.097657h146v11.539063c0 4.417969 3.582031 8 8 8s8-3.582031 8-8v-11.539063zm0 0" fill="#f4b844"/></svg>